<svg viewBox="0 0 32 32" xmlns="http://www.w3.org/2000/svg">
  <defs>
    <linearGradient id="favicon-gradient" x1="0%" y1="0%" x2="100%" y2="100%">
      <stop offset="0%" style="stop-color:#3b82f6;stop-opacity:1" />
      <stop offset="100%" style="stop-color:#1e40af;stop-opacity:1" />
    </linearGradient>
  </defs>
  
  <!-- Background -->
  <rect width="32" height="32" rx="6" fill="#f0f9ff"/>
  
  <!-- Letter "B" stylized -->
  <path d="M 9 8 L 9 24 L 16 24 C 18.5 24 20 22.5 20 20.5 C 20 19.2 19.3 18.2 18.5 17.8 C 19.1 17.3 19.5 16.5 19.5 15.5 C 19.5 13.5 18 12 16 12 L 9 8 Z M 12 11 L 15 11 C 16 11 16.5 11.5 16.5 12.5 C 16.5 13.5 16 14 15 14 L 12 14 Z M 12 16 L 15.5 16 C 16.5 16 17 16.7 17 17.5 C 17 18.5 16.5 19 15.5 19 L 12 19 Z" 
        fill="url(#favicon-gradient)"/>
  
  <!-- Letter "Z" stylized -->
  <path d="M 18 8 L 18 11 L 22 11 L 18 20 L 18 24 L 26 24 L 26 21 L 22 21 L 26 12 L 26 8 Z" 
        fill="url(#favicon-gradient)"/>
</svg>